<svg height="640" preserveAspectRatio="xMidYMid meet" viewBox="0 0 640 640" width="640" xmlns="http://www.w3.org/2000/svg" xmlns:xlink="http://www.w3.org/1999/xlink"><defs><path id="a" d="m442.35 100.13 1.58.16 1.55.22 1.53.28 1.51.34 1.49.4 1.47.46 1.43.51 1.42.56 1.38.62 1.36.67 1.32.72 1.3.77 1.26.82 1.22.86 1.19.91 1.16.95 1.12 1 1.07 1.04 1.04 1.08 1 1.11.95 1.16.91 1.19.86 1.22.82 1.27.77 1.29.72 1.32.67 1.36.61 1.38.57 1.42.51 1.43.45 1.47.4 1.49.34 1.51.29 1.53.22 1.55.16 1.57.09 1.59.04 1.61v362.06l-.04 1.61-.09 1.59-.16 1.57-.22 1.55-.29 1.53-.34 1.51-.4 1.49-.45 1.47-.51 1.43-.57 1.42-.61 1.38-.67 1.36-.72 1.32-.77 1.29-.82 1.27-.86 1.22-.91 1.19-.95 1.16-1 1.12-1.04 1.07-1.07 1.04-1.12 1-1.16.95-1.19.91-1.22.86-1.26.82-1.3.77-1.32.72-1.36.67-1.38.62-1.42.56-1.43.51-1.47.46-1.49.4-1.51.34-1.53.28-1.55.22-1.58.16-1.59.1-1.6.03h-238.3l-1.61-.03-1.59-.1-1.57-.16-1.56-.22-1.53-.28-1.51-.34-1.49-.4-1.46-.46-1.44-.51-1.42-.56-1.38-.62-1.36-.67-1.32-.72-1.3-.77-1.26-.82-1.22-.86-1.2-.91-1.15-.95-1.12-1-1.08-1.04-1.03-1.07-1-1.12-.95-1.16-.91-1.19-.87-1.22-.81-1.26-.77-1.3-.72-1.32-.67-1.36-.62-1.38-.57-1.42-.51-1.43-.45-1.47-.4-1.49-.34-1.51-.28-1.53-.23-1.55-.16-1.57-.09-1.59-.03-1.61v-362.06l.03-1.61.09-1.59.16-1.57.23-1.55.28-1.53.34-1.51.4-1.49.45-1.47.51-1.43.57-1.42.62-1.38.67-1.36.72-1.32.77-1.29.81-1.27.87-1.22.91-1.19.95-1.16 1-1.11 1.03-1.08 1.08-1.04 1.12-1 1.15-.95 1.2-.91 1.22-.86 1.26-.82 1.3-.77 1.32-.72 1.36-.67 1.38-.62 1.42-.56 1.44-.51 1.46-.46 1.49-.4 1.51-.34 1.53-.28 1.56-.22 1.57-.16 1.59-.1 1.61-.03h238.3l1.6.03zm-60.47 378h41.25v-110h-41.25zm-165 0h41.25v-41.25h-41.25zm82.5 0h41.25v-41.25h-41.25zm0-68.75h41.25v-41.25h-41.25zm-82.5 0h41.25v-41.25h-41.25zm0-68.75h41.25v-41.25h-41.25zm82.5 0h41.25v-41.25h-41.25zm82.5 0h41.25v-41.25h-41.25zm-165-103.13h206.25v-68.75h-206.25z"/><path id="b" d="m346.2 1.06 12.89 1.32 12.74 1.82 12.57 2.31 12.4 2.81 12.21 3.28 12.02 3.74 11.8 4.2 11.6 4.65 11.36 5.08 11.13 5.5 10.88 5.92 10.62 6.32 10.36 6.72 10.07 7.09 9.79 7.47 9.49 7.83 9.17 8.19 8.86 8.52 8.52 8.86 8.19 9.17 7.83 9.49 7.47 9.78 7.1 10.08 6.71 10.35 6.32 10.63 5.92 10.88 5.51 11.12 5.08 11.37 4.65 11.59 4.2 11.81 3.74 12.02 3.28 12.21 2.81 12.4 2.31 12.57 1.82 12.74 1.32 12.89.79 13.04.27 13.17-.27 13.17-.79 13.04-1.32 12.89-1.82 12.74-2.31 12.57-2.81 12.4-3.28 12.21-3.74 12.02-4.2 11.81-4.65 11.59-5.08 11.37-5.51 11.12-5.92 10.88-6.32 10.63-6.71 10.35-7.1 10.08-7.47 9.78-7.83 9.49-8.19 9.17-8.52 8.86-8.86 8.52-9.17 8.19-9.49 7.83-9.79 7.47-10.07 7.09-10.36 6.72-10.62 6.32-10.88 5.92-11.13 5.5-11.36 5.08-11.6 4.65-11.8 4.2-12.02 3.74-12.21 3.28-12.4 2.81-12.57 2.31-12.74 1.82-12.89 1.32-13.03.79-13.17.27-13.17-.27-13.04-.79-12.89-1.32-12.74-1.82-12.57-2.31-12.4-2.81-12.21-3.28-12.02-3.74-11.81-4.2-11.59-4.65-11.37-5.08-11.12-5.5-10.88-5.92-10.63-6.32-10.35-6.72-10.08-7.09-9.78-7.47-9.49-7.83-9.17-8.19-8.86-8.52-8.52-8.86-8.19-9.17-7.83-9.49-7.47-9.78-7.09-10.08-6.72-10.35-6.32-10.63-5.92-10.88-5.5-11.12-5.08-11.37-4.65-11.59-4.2-11.81-3.74-12.02-3.28-12.21-2.81-12.4-2.31-12.57-1.82-12.74-1.32-12.89-.79-13.04-.27-13.17.27-13.17.79-13.04 1.32-12.89 1.82-12.74 2.31-12.57 2.81-12.4 3.28-12.21 3.74-12.02 4.2-11.81 4.65-11.59 5.08-11.37 5.5-11.12 5.92-10.88 6.32-10.63 6.72-10.35 7.09-10.08 7.47-9.78 7.83-9.49 8.19-9.17 8.52-8.86 8.86-8.52 9.17-8.19 9.49-7.83 9.78-7.47 10.08-7.09 10.35-6.72 10.63-6.32 10.88-5.92 11.12-5.5 11.37-5.08 11.59-4.65 11.81-4.2 12.02-3.74 12.21-3.28 12.4-2.81 12.57-2.31 12.74-1.82 12.89-1.32 13.04-.79 13.17-.27 13.17.27zm-50.02 29-11.72 1.19-11.58 1.66-11.43 2.1-11.27 2.55-11.1 2.98-10.93 3.41-10.73 3.82-10.54 4.22-10.34 4.62-10.11 5-9.89 5.38-9.66 5.75-9.41 6.1-9.16 6.46-8.9 6.79-8.62 7.12-8.34 7.44-8.05 7.75-7.75 8.05-7.44 8.34-7.12 8.62-6.79 8.9-6.46 9.16-6.1 9.41-5.75 9.66-5.38 9.89-5 10.11-4.62 10.34-4.22 10.54-3.82 10.73-3.41 10.93-2.98 11.1-2.55 11.27-2.1 11.43-1.66 11.58-1.19 11.72-.73 11.85-.24 11.97.24 11.97.73 11.85 1.19 11.72 1.66 11.58 2.1 11.43 2.55 11.27 2.98 11.1 3.41 10.93 3.82 10.73 4.22 10.54 4.62 10.34 5 10.11 5.38 9.89 5.75 9.66 6.1 9.41 6.46 9.16 6.79 8.9 7.12 8.62 7.44 8.34 7.75 8.05 8.05 7.75 8.34 7.44 8.62 7.12 8.9 6.79 9.16 6.46 9.41 6.1 9.66 5.75 9.89 5.38 10.11 5 10.34 4.62 10.54 4.22 10.73 3.82 10.93 3.41 11.1 2.98 11.27 2.55 11.43 2.1 11.58 1.66 11.72 1.19 11.85.73 11.97.24 11.97-.24 11.85-.73 11.72-1.19 11.58-1.66 11.43-2.1 11.27-2.55 11.1-2.98 10.93-3.41 10.73-3.82 10.54-4.22 10.34-4.62 10.11-5 9.89-5.38 9.66-5.75 9.41-6.1 9.16-6.46 8.9-6.79 8.62-7.12 8.34-7.44 8.05-7.75 7.75-8.05 7.44-8.34 7.12-8.62 6.79-8.9 6.46-9.16 6.1-9.41 5.75-9.66 5.38-9.89 5-10.11 4.62-10.34 4.22-10.54 3.82-10.73 3.41-10.93 2.98-11.1 2.55-11.27 2.1-11.43 1.66-11.58 1.19-11.72.73-11.85.24-11.97-.24-11.97-.73-11.85-1.19-11.72-1.66-11.58-2.1-11.43-2.55-11.27-2.98-11.1-3.41-10.93-3.82-10.73-4.22-10.54-4.62-10.34-5-10.11-5.38-9.89-5.75-9.66-6.1-9.41-6.46-9.16-6.79-8.9-7.12-8.62-7.44-8.34-7.75-8.05-8.05-7.75-8.34-7.44-8.62-7.12-8.9-6.79-9.16-6.46-9.41-6.1-9.66-5.75-9.89-5.38-10.11-5-10.34-4.62-10.54-4.22-10.73-3.82-10.93-3.41-11.1-2.98-11.27-2.55-11.43-2.1-11.58-1.66-11.72-1.19-11.85-.73-11.97-.24-11.97.24z"/></defs><use fill="#fafafa" xlink:href="#a"/><use fill="none" xlink:href="#a"/><use fill="#fafafa" xlink:href="#b"/><use fill="none" xlink:href="#b"/></svg>